HIERARCHY
ROOT Hips
{
 OFFSET 0.000000 0.000000 0.000000
 CHANNELS 6 Xposition Yposition Zposition Yrotation Xrotation Zrotation
 JOINT Chest
 {
  OFFSET 0.000000 9.585900 0.002600
  CHANNELS 3 Yrotation Xrotation Zrotation
  JOINT Chest2
  {
   OFFSET 0.000000 9.601200 -0.005300
   CHANNELS 3 Yrotation Xrotation Zrotation
   JOINT Chest3
   {
    OFFSET 0.000000 9.561800 0.000000
    CHANNELS 3 Yrotation Xrotation Zrotation
    JOINT Chest4
    {
     OFFSET 0.000000 9.552100 0.000000
     CHANNELS 3 Yrotation Xrotation Zrotation
     JOINT Neck
     {
      OFFSET 0.000000 14.453000 0.000000
      CHANNELS 3 Yrotation Xrotation Zrotation
      JOINT Head
      {
       OFFSET 0.000000 8.936500 -0.011300
       CHANNELS 3 Yrotation Xrotation Zrotation
       End Site
       {
        OFFSET 0.000000 17.073600 -0.006000
       }
      }
     }
     JOINT RightCollar
     {
      OFFSET -2.921100 9.558500 0.000000
      CHANNELS 3 Yrotation Xrotation Zrotation
      JOINT RightShoulder
      {
       OFFSET -13.519700 0.000000 0.000000
       CHANNELS 3 Yrotation Xrotation Zrotation
       JOINT RightElbow
       {
        OFFSET 0.000000 -29.696600 0.000000
        CHANNELS 3 Yrotation Xrotation Zrotation
        JOINT RightWrist
        {
         OFFSET 0.000000 -24.004700 0.000000
         CHANNELS 3 Yrotation Xrotation Zrotation
         End Site
         {
          OFFSET 0.000000 -17.728500 0.000000
         }
        }
       }
      }
     }
     JOINT LeftCollar
     {
      OFFSET 2.921100 9.558500 0.000000
      CHANNELS 3 Yrotation Xrotation Zrotation
      JOINT LeftShoulder
      {
       OFFSET 13.519700 0.000000 0.000000
       CHANNELS 3 Yrotation Xrotation Zrotation
       JOINT LeftElbow
       {
        OFFSET 0.000000 -29.696600 0.000000
        CHANNELS 3 Yrotation Xrotation Zrotation
        JOINT LeftWrist
        {
         OFFSET 0.000000 -24.004700 0.000000
         CHANNELS 3 Yrotation Xrotation Zrotation
         End Site
         {
          OFFSET 0.000000 -17.728500 0.000000
         }
        }
       }
      }
     }
    }
   }
  }
 }
 JOINT RightHip
 {
  OFFSET -7.771700 -0.012900 -0.001300
  CHANNELS 3 Yrotation Xrotation Zrotation
  JOINT RightKnee
  {
   OFFSET 0.000000 -40.869800 0.001200
   CHANNELS 3 Yrotation Xrotation Zrotation
   JOINT RightAnkle
   {
    OFFSET 0.000000 -39.717900 0.002100
    CHANNELS 3 Yrotation Xrotation Zrotation
    JOINT RightToe
    {
     OFFSET 0.000000 -4.965400 11.033500
     CHANNELS 3 Yrotation Xrotation Zrotation
     End Site
     {
      OFFSET 0.000000 -1.423100 5.872300
     }
    }
   }
  }
 }
 JOINT LeftHip
 {
  OFFSET 7.771700 -0.012900 -0.001300
  CHANNELS 3 Yrotation Xrotation Zrotation
  JOINT LeftKnee
  {
   OFFSET 0.000000 -40.869800 0.001200
   CHANNELS 3 Yrotation Xrotation Zrotation
   JOINT LeftAnkle
   {
    OFFSET 0.000000 -39.717900 0.002100
    CHANNELS 3 Yrotation Xrotation Zrotation
    JOINT LeftToe
    {
     OFFSET 0.000000 -4.965400 11.033500
     CHANNELS 3 Yrotation Xrotation Zrotation
     End Site
     {
      OFFSET 0.000000 -1.423100 5.872300
     }
    }
   }
  }
 }
}
MOTION
Frames: 5
Frame Time: 0.008333
-15.453542 46.485455 21.478204 174.473155 -32.705670 -2.437051 0.650906 19.554331 1.471444 0.043977 2.377799 0.188813 0.076541 3.911380 0.311812 0.487961 16.901357 1.419252 0.972958 16.249871 -1.329085 2.296537 -5.539193 -2.747216 1.550623 0.171728 -1.816290 7.148685 -9.018043 -18.214765 -57.852679 -71.309800 104.029340 0.139464 2.613006 -20.787431 0.450046 -0.545001 2.569128 -5.309085 -5.081437 13.405113 97.502400 -80.366987 -132.182878 -2.686735 7.993234 14.061866 -4.613694 -54.466137 -5.775468 -159.961615 78.754444 -150.479295 -12.431798 -14.387344 -6.143266 0.003266 -0.207745 0.013520 0.751226 -56.753054 13.179758 -106.288022 82.378768 -110.670001 6.917857 -3.693790 3.441307 0.115119 0.180551 0.041356
-15.452833 46.483294 21.475762 174.461533 -32.712333 -2.426661 0.660411 19.558729 1.467305 0.044315 2.378617 0.189096 0.079176 3.911479 0.311295 0.505776 16.901612 1.419774 0.970483 16.264719 -1.298376 2.301850 -5.512014 -2.707302 1.529146 0.161887 -1.803073 7.156769 -9.021890 -18.201085 -57.848222 -71.319659 104.025018 0.140919 2.588456 -20.820285 0.422041 -0.559982 2.581398 -5.298700 -5.080808 13.411150 97.631777 -80.373178 -132.296328 -2.694779 7.992165 14.028096 -4.596648 -54.462892 -5.792347 -160.015894 78.753786 -150.526421 -12.442278 -14.380429 -6.142886 -0.006399 -0.215286 0.006157 0.761445 -56.750127 13.169581 -106.375884 82.383359 -110.752785 6.934339 -3.694385 3.431255 0.090266 0.175974 0.043399
-15.451848 46.480919 21.473649 174.449400 -32.717561 -2.415297 0.670116 19.562119 1.461906 0.043707 2.379784 0.189751 0.082203 3.910834 0.310374 0.517874 16.902338 1.420136 0.975666 16.280106 -1.271651 2.302924 -5.487392 -2.671134 1.517586 0.151046 -1.793762 7.168056 -9.025985 -18.188611 -57.858167 -71.333710 104.034195 0.128549 2.591867 -20.843682 0.408338 -0.572539 2.589308 -5.296454 -5.094478 13.430602 97.676290 -80.367407 -132.324260 -2.684685 8.000442 13.999506 -4.576631 -54.460378 -5.808567 -160.052450 78.752536 -150.560602 -12.429047 -14.374521 -6.147431 -0.036642 -0.217745 0.004478 0.777503 -56.745836 13.161318 -106.404825 82.374998 -110.773231 6.920886 -3.697732 3.425488 0.105573 0.176169 0.041206
-15.448912 46.478596 21.471913 174.435058 -32.722931 -2.412776 0.684756 19.566389 1.467355 0.046376 2.378332 0.188639 0.080424 3.912342 0.311494 0.534570 16.902435 1.420142 0.976664 16.293956 -1.249779 2.303209 -5.463486 -2.635427 1.507389 0.140256 -1.788824 7.179168 -9.031211 -18.174133 -57.832107 -71.339496 103.998541 0.122857 2.594189 -20.855433 0.392181 -0.587273 2.598211 -5.290342 -5.103716 13.442715 97.632385 -80.358772 -132.279262 -2.691834 8.001024 13.980927 -4.570615 -54.455546 -5.805183 -160.082936 78.754681 -150.581708 -12.426909 -14.369987 -6.159868 0.003554 -0.217337 0.004618 0.771414 -56.739402 13.171269 -106.437787 82.371752 -110.803573 6.952756 -3.710125 3.413874 0.108068 0.181820 0.043545
-15.447250 46.476500 21.469848 174.421654 -32.730804 -2.401848 0.709799 19.572655 1.472075 0.048272 2.377281 0.187574 0.080532 3.914153 0.312024 0.530704 16.901849 1.418240 1.001061 16.319752 -1.219102 2.283987 -5.452189 -2.610751 1.510305 0.128479 -1.788920 7.173141 -9.027320 -18.162368 -57.829760 -71.344187 103.993722 0.118082 2.586626 -20.873832 0.381828 -0.595245 2.604676 -5.271778 -5.118258 13.447793 97.601591 -80.355425 -132.260403 -2.744594 7.997861 13.951932 -4.550881 -54.448099 -5.816649 -160.122309 78.758390 -150.610531 -12.440988 -14.370771 -6.164475 0.012025 -0.216694 0.003643 0.758248 -56.728730 13.176558 -106.491024 82.373076 -110.864191 6.972003 -3.718537 3.411660 0.090906 0.184464 0.035943
